<?xml version="1.0" encoding="UTF-8"?>
<svg width="368px" height="212px" viewBox="0 0 368 212" version="1.1" xmlns="http://www.w3.org/2000/svg" xmlns:xlink="http://www.w3.org/1999/xlink">
    <!-- Generator: Sketch 52.4 (67378) - http://www.bohemiancoding.com/sketch -->
    <title>mxdlab_logo</title>
    <desc>Created with Sketch.</desc>
    <g id="mxdlab_logo" stroke="none" stroke-width="1" fill="none" fill-rule="evenodd">
        <polygon id="Path" fill="#FFFFFF" points="38.9 44 39.14 13.94 38.96 13.94 27.92 44 20.72 44 9.98 13.94 9.8 13.94 10.04 44 0.38 44 0.38 1.52 14.96 1.52 24.62 28.76 24.86 28.76 34.1 1.52 48.92 1.52 48.92 44"></polygon>
        <path d="M93.68,27.98 C93.68,30.5400128 93.2500043,32.8699895 92.39,34.97 C91.5299957,37.0700105 90.300008,38.8699925 88.7,40.37 C87.099992,41.8700075 85.1700113,43.0399958 82.91,43.88 C80.6499887,44.7200042 78.1400138,45.14 75.38,45.14 C72.579986,45.14 70.0600112,44.7200042 67.82,43.88 C65.5799888,43.0399958 63.6800078,41.8700075 62.12,40.37 C60.5599922,38.8699925 59.3600042,37.0700105 58.52,34.97 C57.6799958,32.8699895 57.26,30.5400128 57.26,27.98 L57.26,1.52 L67.46,1.52 L67.46,27.14 C67.46,28.3000058 67.6099985,29.3999948 67.91,30.44 C68.2100015,31.4800052 68.6699969,32.4099959 69.29,33.23 C69.9100031,34.0500041 70.7299949,34.6999976 71.75,35.18 C72.7700051,35.6600024 73.9999928,35.9 75.44,35.9 C76.8800072,35.9 78.1099949,35.6600024 79.13,35.18 C80.1500051,34.6999976 80.9799968,34.0500041 81.62,33.23 C82.2600032,32.4099959 82.7199986,31.4800052 83,30.44 C83.2800014,29.3999948 83.42,28.3000058 83.42,27.14 L83.42,1.52 L93.68,1.52 L93.68,27.98 Z" id="Path" fill="#AFAFAF"></path>
        <path d="M124.4,12.56 C123.519996,11.4399944 122.370007,10.5500033 120.95,9.89 C119.529993,9.2299967 118.160007,8.9 116.84,8.9 C116.159997,8.9 115.470004,8.9599994 114.77,9.08 C114.069997,9.2000006 113.440003,9.4299983 112.88,9.77 C112.319997,10.1100017 111.850002,10.5499973 111.47,11.09 C111.089998,11.6300027 110.9,12.3199958 110.9,13.16 C110.9,13.8800036 111.049999,14.4799976 111.35,14.96 C111.650002,15.4400024 112.089997,15.8599982 112.67,16.22 C113.250003,16.5800018 113.939996,16.9099985 114.74,17.21 C115.540004,17.5100015 116.439995,17.8199984 117.44,18.14 C118.880007,18.6200024 120.379992,19.1499971 121.94,19.73 C123.500008,20.3100029 124.919994,21.0799952 126.2,22.04 C127.480006,23.0000048 128.539996,24.1899929 129.38,25.61 C130.220004,27.0300071 130.64,28.7999894 130.64,30.92 C130.64,33.3600122 130.190004,35.4699911 129.29,37.25 C128.389995,39.0300089 127.180008,40.4999942 125.66,41.66 C124.139992,42.8200058 122.40001,43.6799972 120.44,44.24 C118.47999,44.8000028 116.46001,45.08 114.38,45.08 C111.339985,45.08 108.400014,44.5500053 105.56,43.49 C102.719986,42.4299947 100.360009,40.9200098 98.48,38.96 L105.2,32.12 C106.240005,33.4000064 107.609992,34.4699957 109.31,35.33 C111.010009,36.1900043 112.699992,36.62 114.38,36.62 C115.140004,36.62 115.879996,36.5400008 116.6,36.38 C117.320004,36.2199992 117.949997,35.9600018 118.49,35.6 C119.030003,35.2399982 119.459998,34.760003 119.78,34.16 C120.100002,33.559997 120.26,32.8400042 120.26,32 C120.26,31.199996 120.060002,30.5200028 119.66,29.96 C119.259998,29.3999972 118.690004,28.8900023 117.95,28.43 C117.209996,27.9699977 116.290006,27.5500019 115.19,27.17 C114.089995,26.7899981 112.840007,26.3800022 111.44,25.94 C110.079993,25.4999978 108.750007,24.980003 107.45,24.38 C106.149994,23.779997 104.990005,23.0100047 103.97,22.07 C102.949995,21.1299953 102.130003,19.9900067 101.51,18.65 C100.889997,17.3099933 100.58,15.6800096 100.58,13.76 C100.58,11.3999882 101.059995,9.3800084 102.02,7.7 C102.980005,6.0199916 104.239992,4.6400054 105.8,3.56 C107.360008,2.4799946 109.11999,1.6900025 111.08,1.19 C113.04001,0.6899975 115.01999,0.44 117.02,0.44 C119.420012,0.44 121.869988,0.8799956 124.37,1.76 C126.870013,2.6400044 129.059991,3.9399914 130.94,5.66 L124.4,12.56 Z" id="Path" fill="#AFAFAF"></path>
        <polygon id="Path" fill="#AFAFAF" points="137.42 44 137.42 1.52 147.74 1.52 147.74 44"></polygon>
        <path d="M193.88,38.12 C191.999991,40.2800108 189.680014,41.9899937 186.92,43.25 C184.159986,44.5100063 180.980018,45.14 177.38,45.14 C174.099984,45.14 171.070014,44.6000054 168.29,43.52 C165.509986,42.4399946 163.10001,40.9100099 161.06,38.93 C159.01999,36.9499901 157.420006,34.5800138 156.26,31.82 C155.099994,29.0599862 154.52,26.0200166 154.52,22.7 C154.52,19.299983 155.109994,16.2200138 156.29,13.46 C157.470006,10.6999862 159.09999,8.3500097 161.18,6.41 C163.26001,4.4699903 165.699986,2.9800052 168.5,1.94 C171.300014,0.8999948 174.319984,0.38 177.56,0.38 C180.560015,0.38 183.509985,0.9099947 186.41,1.97 C189.310014,3.0300053 191.659991,4.5799898 193.46,6.62 L186.5,13.58 C185.539995,12.2599934 184.280008,11.2800032 182.72,10.64 C181.159992,9.9999968 179.560008,9.68 177.92,9.68 C176.119991,9.68 174.470007,10.0099967 172.97,10.67 C171.469992,11.3300033 170.180005,12.2399942 169.1,13.4 C168.019995,14.5600058 167.180003,15.9299921 166.58,17.51 C165.979997,19.0900079 165.68,20.8199906 165.68,22.7 C165.68,24.6200096 165.979997,26.379992 166.58,27.98 C167.180003,29.580008 168.009995,30.9499943 169.07,32.09 C170.130005,33.2300057 171.399993,34.1199968 172.88,34.76 C174.360007,35.4000032 175.979991,35.72 177.74,35.72 C179.78001,35.72 181.559992,35.320004 183.08,34.52 C184.600008,33.719996 185.819995,32.6800064 186.74,31.4 L193.88,38.12 Z" id="Path" fill="#AFAFAF"></path>
        <polygon id="Path" fill="#AFAFAF" points="0.38 100 0.38 57.52 28.94 57.52 28.94 66.22 10.28 66.22 10.28 74.2 27.92 74.2 27.92 82.42 10.28 82.42 10.28 91.24 30.02 91.24 30.02 100"></polygon>
        <polygon id="Path" fill="#FFFFFF" points="62.42 100 53.12 85 44.18 100 31.94 100 46.82 77.56 33.14 57.52 45.5 57.52 53.42 70.72 61.22 57.52 73.16 57.52 59.72 77.56 75.08 100"></polygon>
        <path d="M111.2,70.6 C111.2,73.0800124 110.740005,75.1699915 109.82,76.87 C108.899995,78.5700085 107.660008,79.9399948 106.1,80.98 C104.539992,82.0200052 102.74001,82.7799976 100.7,83.26 C98.6599898,83.7400024 96.540011,83.98 94.34,83.98 L89.24,83.98 L89.24,100 L78.98,100 L78.98,57.52 L94.58,57.52 C96.9000116,57.52 99.0699899,57.7499977 101.09,58.21 C103.11001,58.6700023 104.869993,59.4099949 106.37,60.43 C107.870007,61.4500051 109.049996,62.7899917 109.91,64.45 C110.770004,66.1100083 111.2,68.1599878 111.2,70.6 Z M100.94,70.66 C100.94,69.659995 100.740002,68.8400032 100.34,68.2 C99.939998,67.5599968 99.4000034,67.0600018 98.72,66.7 C98.0399966,66.3399982 97.2700043,66.1000006 96.41,65.98 C95.5499957,65.8599994 94.6600046,65.8 93.74,65.8 L89.24,65.8 L89.24,75.82 L93.56,75.82 C94.5200048,75.82 95.4399956,75.7400008 96.32,75.58 C97.2000044,75.4199992 97.9899965,75.140002 98.69,74.74 C99.3900035,74.339998 99.939998,73.8100033 100.34,73.15 C100.740002,72.4899967 100.94,71.660005 100.94,70.66 Z" id="Combined-Shape" fill="#AFAFAF"></path>
        <polygon id="Path" fill="#AFAFAF" points="117.38 100 117.38 57.52 145.94 57.52 145.94 66.22 127.28 66.22 127.28 74.2 144.92 74.2 144.92 82.42 127.28 82.42 127.28 91.24 147.02 91.24 147.02 100"></polygon>
        <path d="M176.54,100 L167.36,83.14 L163.88,83.14 L163.88,100 L153.8,100 L153.8,57.52 L170,57.52 C172.04001,57.52 174.02999,57.7299979 175.97,58.15 C177.91001,58.5700021 179.649992,59.279995 181.19,60.28 C182.730008,61.280005 183.959995,62.5999918 184.88,64.24 C185.800005,65.8800082 186.26,67.9199878 186.26,70.36 C186.26,73.2400144 185.480008,75.6599902 183.92,77.62 C182.359992,79.5800098 180.200014,80.9799958 177.44,81.82 L188.54,100 L176.54,100 Z M176.12,70.54 C176.12,69.539995 175.910002,68.7300031 175.49,68.11 C175.069998,67.4899969 174.530003,67.0100017 173.87,66.67 C173.209997,66.3299983 172.470004,66.1000006 171.65,65.98 C170.829996,65.8599994 170.040004,65.8 169.28,65.8 L163.82,65.8 L163.82,75.7 L168.68,75.7 C169.520004,75.7 170.379996,75.6300007 171.26,75.49 C172.140004,75.3499993 172.939996,75.1000018 173.66,74.74 C174.380004,74.3799982 174.969998,73.8600034 175.43,73.18 C175.890002,72.4999966 176.12,71.6200054 176.12,70.54 Z" id="Combined-Shape" fill="#AFAFAF"></path>
        <polygon id="Path" fill="#AFAFAF" points="193.58 100 193.58 57.52 203.9 57.52 203.9 100"></polygon>
        <polygon id="Path" fill="#AFAFAF" points="212.66 100 212.66 57.52 241.22 57.52 241.22 66.22 222.56 66.22 222.56 74.2 240.2 74.2 240.2 82.42 222.56 82.42 222.56 91.24 242.3 91.24 242.3 100"></polygon>
        <polygon id="Path" fill="#AFAFAF" points="276.08 100 258.98 72.22 258.8 72.22 259.04 100 249.08 100 249.08 57.52 260.78 57.52 277.82 85.24 278 85.24 277.76 57.52 287.72 57.52 287.72 100"></polygon>
        <path d="M333.86,94.12 C331.979991,96.2800108 329.660014,97.9899937 326.9,99.25 C324.139986,100.510006 320.960018,101.14 317.36,101.14 C314.079984,101.14 311.050014,100.600005 308.27,99.52 C305.489986,98.4399946 303.08001,96.9100099 301.04,94.93 C298.99999,92.9499901 297.400006,90.5800138 296.24,87.82 C295.079994,85.0599862 294.5,82.0200166 294.5,78.7 C294.5,75.299983 295.089994,72.2200138 296.27,69.46 C297.450006,66.6999862 299.07999,64.3500097 301.16,62.41 C303.24001,60.4699903 305.679986,58.9800052 308.48,57.94 C311.280014,56.8999948 314.299984,56.38 317.54,56.38 C320.540015,56.38 323.489986,56.9099947 326.39,57.97 C329.290015,59.0300053 331.639991,60.5799898 333.44,62.62 L326.48,69.58 C325.519995,68.2599934 324.260008,67.2800032 322.7,66.64 C321.139992,65.9999968 319.540008,65.68 317.9,65.68 C316.099991,65.68 314.450008,66.0099967 312.95,66.67 C311.449993,67.3300033 310.160005,68.2399942 309.08,69.4 C307.999995,70.5600058 307.160003,71.9299921 306.56,73.51 C305.959997,75.0900079 305.66,76.8199906 305.66,78.7 C305.66,80.6200096 305.959997,82.379992 306.56,83.98 C307.160003,85.580008 307.989995,86.9499943 309.05,88.09 C310.110005,89.2300057 311.379993,90.1199968 312.86,90.76 C314.340007,91.4000032 315.959991,91.72 317.72,91.72 C319.76001,91.72 321.539992,91.320004 323.06,90.52 C324.580008,89.719996 325.799995,88.6800064 326.72,87.4 L333.86,94.12 Z" id="Path" fill="#AFAFAF"></path>
        <polygon id="Path" fill="#AFAFAF" points="338.24 100 338.24 57.52 366.8 57.52 366.8 66.22 348.14 66.22 348.14 74.2 365.78 74.2 365.78 82.42 348.14 82.42 348.14 91.24 367.88 91.24 367.88 100"></polygon>
        <path d="M40.04,134.64 C40.04,138.360019 39.3500069,141.569986 37.97,144.27 C36.5899931,146.970013 34.7700113,149.189991 32.51,150.93 C30.2499887,152.670009 27.7000142,153.949996 24.86,154.77 C22.0199858,155.590004 19.1400146,156 16.22,156 L0.38,156 L0.38,113.52 L15.74,113.52 C18.740015,113.52 21.6999854,113.869996 24.62,114.57 C27.5400146,115.270003 30.1399886,116.429992 32.42,118.05 C34.7000114,119.670008 36.539993,121.839986 37.94,124.56 C39.340007,127.280014 40.04,130.63998 40.04,134.64 Z M29.36,134.64 C29.36,132.239988 28.9700039,130.250008 28.19,128.67 C27.4099961,127.089992 26.3700065,125.830005 25.07,124.89 C23.7699935,123.949995 22.2900083,123.280002 20.63,122.88 C18.9699917,122.479998 17.2600088,122.28 15.5,122.28 L10.4,122.28 L10.4,147.12 L15.26,147.12 C17.1000092,147.12 18.8699915,146.910002 20.57,146.49 C22.2700085,146.069998 23.7699935,145.380005 25.07,144.42 C26.3700065,143.459995 27.4099961,142.180008 28.19,140.58 C28.9700039,138.979992 29.36,137.000012 29.36,134.64 Z" id="Combined-Shape" fill="#FFFFFF"></path>
        <polygon id="Path" fill="#AFAFAF" points="46.82 156 46.82 113.52 75.38 113.52 75.38 122.22 56.72 122.22 56.72 130.2 74.36 130.2 74.36 138.42 56.72 138.42 56.72 147.24 76.46 147.24 76.46 156"></polygon>
        <path d="M105.68,124.56 C104.799996,123.439994 103.650007,122.550003 102.23,121.89 C100.809993,121.229997 99.4400066,120.9 98.12,120.9 C97.4399966,120.9 96.7500035,120.959999 96.05,121.08 C95.3499965,121.200001 94.7200028,121.429998 94.16,121.77 C93.5999972,122.110002 93.1300019,122.549997 92.75,123.09 C92.3699981,123.630003 92.18,124.319996 92.18,125.16 C92.18,125.880004 92.3299985,126.479998 92.63,126.96 C92.9300015,127.440002 93.3699971,127.859998 93.95,128.22 C94.5300029,128.580002 95.219996,128.909999 96.02,129.21 C96.820004,129.510001 97.719995,129.819998 98.72,130.14 C100.160007,130.620002 101.659992,131.149997 103.22,131.73 C104.780008,132.310003 106.199994,133.079995 107.48,134.04 C108.760006,135.000005 109.819996,136.189993 110.66,137.61 C111.500004,139.030007 111.92,140.799989 111.92,142.92 C111.92,145.360012 111.470005,147.469991 110.57,149.25 C109.669996,151.030009 108.460008,152.499994 106.94,153.66 C105.419992,154.820006 103.68001,155.679997 101.72,156.24 C99.7599902,156.800003 97.7400104,157.08 95.66,157.08 C92.6199848,157.08 89.6800142,156.550005 86.84,155.49 C83.9999858,154.429995 81.6400094,152.92001 79.76,150.96 L86.48,144.12 C87.5200052,145.400006 88.8899915,146.469996 90.59,147.33 C92.2900085,148.190004 93.9799916,148.62 95.66,148.62 C96.4200038,148.62 97.1599964,148.540001 97.88,148.38 C98.6000036,148.219999 99.2299973,147.960002 99.77,147.6 C100.310003,147.239998 100.739998,146.760003 101.06,146.16 C101.380002,145.559997 101.54,144.840004 101.54,144 C101.54,143.199996 101.340002,142.520003 100.94,141.96 C100.539998,141.399997 99.9700037,140.890002 99.23,140.43 C98.4899963,139.969998 97.5700055,139.550002 96.47,139.17 C95.3699945,138.789998 94.120007,138.380002 92.72,137.94 C91.3599932,137.499998 90.0300065,136.980003 88.73,136.38 C87.4299935,135.779997 86.2700051,135.010005 85.25,134.07 C84.2299949,133.129995 83.4100031,131.990007 82.79,130.65 C82.1699969,129.309993 81.86,127.68001 81.86,125.76 C81.86,123.399988 82.3399952,121.380008 83.3,119.7 C84.2600048,118.019992 85.5199922,116.640005 87.08,115.56 C88.6400078,114.479995 90.3999902,113.690002 92.36,113.19 C94.3200098,112.689998 96.29999,112.44 98.3,112.44 C100.700012,112.44 103.149988,112.879996 105.65,113.76 C108.150013,114.640004 110.339991,115.939991 112.22,117.66 L105.68,124.56 Z" id="Path" fill="#AFAFAF"></path>
        <polygon id="Path" fill="#AFAFAF" points="118.7 156 118.7 113.52 129.02 113.52 129.02 156"></polygon>
        <path d="M175.52,153.42 C173.43999,154.500005 171.010014,155.379997 168.23,156.06 C165.449986,156.740003 162.420016,157.08 159.14,157.08 C155.739983,157.08 152.610014,156.540005 149.75,155.46 C146.889986,154.379995 144.43001,152.86001 142.37,150.9 C140.30999,148.93999 138.700006,146.590014 137.54,143.85 C136.379994,141.109986 135.8,138.060017 135.8,134.7 C135.8,131.299983 136.389994,128.220014 137.57,125.46 C138.750006,122.699986 140.37999,120.35001 142.46,118.41 C144.54001,116.46999 146.979986,114.980005 149.78,113.94 C152.580014,112.899995 155.599984,112.38 158.84,112.38 C162.200017,112.38 165.319986,112.889995 168.2,113.91 C171.080014,114.930005 173.419991,116.299991 175.22,118.02 L168.74,125.4 C167.739995,124.239994 166.420008,123.290004 164.78,122.55 C163.139992,121.809996 161.28001,121.44 159.2,121.44 C157.399991,121.44 155.740008,121.769997 154.22,122.43 C152.699992,123.090003 151.380006,124.009994 150.26,125.19 C149.139994,126.370006 148.270003,127.769992 147.65,129.39 C147.029997,131.010008 146.72,132.77999 146.72,134.7 C146.72,136.66001 146.999997,138.459992 147.56,140.1 C148.120003,141.740008 148.949994,143.149994 150.05,144.33 C151.150005,145.510006 152.509992,146.429997 154.13,147.09 C155.750008,147.750003 157.59999,148.08 159.68,148.08 C160.880006,148.08 162.019995,147.990001 163.1,147.81 C164.180005,147.629999 165.179995,147.340002 166.1,146.94 L166.1,139.2 L158,139.2 L158,130.92 L175.52,130.92 L175.52,153.42 Z" id="Path" fill="#AFAFAF"></path>
        <polygon id="Path" fill="#AFAFAF" points="210.92 156 193.82 128.22 193.64 128.22 193.88 156 183.92 156 183.92 113.52 195.62 113.52 212.66 141.24 212.84 141.24 212.6 113.52 222.56 113.52 222.56 156"></polygon>
        <path d="M108.8,199.64 C108.8,201.960012 108.340005,203.909992 107.42,205.49 C106.499995,207.070008 105.280008,208.339995 103.76,209.3 C102.239992,210.260005 100.51001,210.949998 98.57,211.37 C96.6299903,211.790002 94.6400102,212 92.6,212 L75.68,212 L75.68,169.52 L92.6,169.52 C94.2400082,169.52 95.9199914,169.689998 97.64,170.03 C99.3600086,170.370002 100.919993,170.949996 102.32,171.77 C103.720007,172.590004 104.859996,173.699993 105.74,175.1 C106.620004,176.500007 107.06,178.279989 107.06,180.44 C107.06,182.800012 106.420006,184.749992 105.14,186.29 C103.859994,187.830008 102.18001,188.939997 100.1,189.62 L100.1,189.74 C101.300006,189.940001 102.429995,190.309997 103.49,190.85 C104.550005,191.390003 105.469996,192.079996 106.25,192.92 C107.030004,193.760004 107.649998,194.739994 108.11,195.86 C108.570002,196.980006 108.8,198.239993 108.8,199.64 Z M97.16,181.82 C97.16,180.379993 96.6100055,179.330003 95.51,178.67 C94.4099945,178.009997 92.7800108,177.68 90.62,177.68 L85.58,177.68 L85.58,186.44 L91.1,186.44 C93.0200096,186.44 94.5099947,186.050004 95.57,185.27 C96.6300053,184.489996 97.16,183.340008 97.16,181.82 Z M98.54,198.68 C98.54,196.919991 97.8800066,195.700003 96.56,195.02 C95.2399934,194.339997 93.480011,194 91.28,194 L85.58,194 L85.58,203.72 L91.34,203.72 C92.140004,203.72 92.9699957,203.650001 93.83,203.51 C94.6900043,203.369999 95.4699965,203.120002 96.17,202.76 C96.8700035,202.399998 97.4399978,201.890003 97.88,201.23 C98.3200022,200.569997 98.54,199.720005 98.54,198.68 Z" id="Combined-Shape" fill="#AFAFAF"></path>
        <path d="M60.74,212 L57.44,203.66 L41,203.66 L37.88,212 L26.72,212 L44.54,169.52 L54.5,169.52 L72.14,212 L60.74,212 Z M49.34,180.86 L43.94,195.44 L54.62,195.44 L49.34,180.86 Z" id="Combined-Shape" fill="#AFAFAF"></path>
        <polygon id="Path" fill="#AFAFAF" points="0.38 212 0.38 169.52 10.7 169.52 10.7 203.06 27.14 203.06 27.14 212"></polygon>
    </g>
</svg>